<svg width="101" height="24" viewBox="0 0 101 24" fill="none" xmlns="http://www.w3.org/2000/svg">
<g clip-path="url(#clip0)">
<path d="M0 2.36914V19.3419H4.99532C10.4448 19.3419 13.9453 16.163 13.9453 10.865C13.9453 5.54798 10.4448 2.36914 4.99532 2.36914H0ZM4.99532 5.96426C7.7768 5.96426 9.63112 7.61044 9.63112 10.865C9.63112 14.1006 7.7768 15.7657 4.99532 15.7657H4.14384V5.96426H4.99532ZM26.7174 14.0438C26.7363 13.7411 26.7363 13.4762 26.7363 13.2302C26.7363 8.89711 24.5414 6.30485 20.4922 6.30485C16.7457 6.30485 14.2291 9.27555 14.2291 13.022C14.2291 16.7685 16.8024 19.6635 21.003 19.6635C24.2954 19.6635 26.0362 17.6011 26.4146 16.8442L23.7467 14.7817C23.5007 15.1602 22.5925 16.1441 21.0787 16.1441C19.565 16.1441 18.4675 15.1791 18.3729 14.0438H26.7174ZM20.5678 9.57829C21.8167 9.57829 22.5735 10.4487 22.6303 11.4705H18.5054C18.6 10.5622 19.2244 9.57829 20.5678 9.57829ZM33.9833 16.1063C32.129 16.1063 30.8612 14.8385 30.8612 12.9653C30.8612 11.2812 31.9208 9.9378 33.8508 9.9378C34.7969 9.9378 35.6862 10.2973 36.3863 10.8839L37.4838 7.45907C36.5945 6.83465 35.3457 6.30485 33.6995 6.30485C29.7638 6.30485 26.812 9.08633 26.812 13.0031C26.812 16.901 29.6692 19.6635 33.7184 19.6635C35.3267 19.6635 36.6134 19.1148 37.4649 18.5282L36.3863 15.198C35.8376 15.6711 34.9294 16.1063 33.9833 16.1063ZM37.5027 15.3872C37.5027 18.1687 39.7355 19.6635 42.2331 19.6635C43.5387 19.6635 44.4659 19.304 45.1092 18.6418L45.3363 19.3419H48.9503V11.4705C48.9503 8.55652 47.834 6.30485 43.4441 6.30485C41.3249 6.30485 39.603 6.98603 38.2596 7.87534L39.7544 10.6001C40.7573 10.1081 41.8358 9.78643 42.9522 9.78643C44.2767 9.78643 44.9011 10.3919 44.9011 11.1677V11.6408C44.447 11.4326 43.5577 11.1677 42.4413 11.1677C39.4327 11.1677 37.5027 12.8517 37.5027 15.3872ZM41.552 15.2548C41.552 14.4222 42.271 13.8924 43.2549 13.8924C44.2199 13.8924 44.9768 14.3844 44.9768 15.2548C44.9768 16.1063 44.2388 16.5604 43.2738 16.5604C42.3278 16.5604 41.552 16.1063 41.552 15.2548ZM58.9788 18.6985C58.9788 20.2501 57.484 20.5907 55.9703 20.5907C54.2484 20.5907 52.8293 19.9852 52.4508 19.8149L51.2777 22.9181C52.413 23.5046 54.1727 23.9966 55.9703 23.9966C59.7546 23.9966 63.028 22.5207 63.028 17.8281V6.60759H59.2437V7.61044C58.8842 7.19416 57.6732 6.30485 55.8 6.30485C52.1481 6.30485 49.5747 9.06741 49.5747 12.9653C49.5747 16.9199 51.9021 19.6635 55.5918 19.6635C57.5218 19.6635 58.7139 18.6985 58.9788 18.3769V18.6985ZM59.1113 12.9463C59.1113 14.952 57.957 16.1063 56.3676 16.1063C54.7214 16.1063 53.624 14.8196 53.624 12.9463C53.624 11.0542 54.7214 9.86212 56.3487 9.86212C58.0895 9.86212 59.1113 11.2434 59.1113 12.9463ZM96.5005 19.3419H100.55V12.2841C100.55 9.69182 100.171 6.30485 96.1788 6.30485C94.5894 6.30485 93.473 7.17524 92.981 7.93211V6.60759H89.0264V19.3419H93.0756V11.7543C93.0756 10.7325 93.719 9.9378 94.8354 9.9378C95.8004 9.9378 96.5005 10.5622 96.5005 11.7543V19.3419Z" fill="white"/>
<path fill-rule="evenodd" clip-rule="evenodd" d="M72.7538 5.66148C73.3025 5.66148 73.8512 5.71825 74.3999 5.83178L73.7377 7.64826C73.4349 7.61041 73.1133 7.59149 72.7916 7.59149C71.978 7.59149 71.2022 7.72394 70.4642 7.98885L70.1615 6.05884C70.9751 5.79393 71.8455 5.66148 72.7538 5.66148ZM71.732 17.7335C71.4482 17.2415 71.2211 16.7307 71.0508 16.2198L72.9619 15.8792C73.0754 16.163 73.2079 16.4468 73.3782 16.7117C73.7755 17.4308 74.2864 18.0362 74.873 18.5282L73.3782 19.7581C72.7348 19.1905 72.1861 18.5093 71.732 17.7335ZM87.3045 14.5357C87.2477 14.952 87.1721 15.3494 87.0774 15.7467L86.2449 15.3872C86.3395 15.0466 86.4341 14.706 86.4909 14.3654L87.3045 14.5357ZM86.1692 17.847C85.9232 18.2822 85.6205 18.6796 85.2799 19.058L84.4852 18.2065C84.7879 17.9227 85.0528 17.601 85.2988 17.2605L86.1692 17.847ZM83.8229 20.3636C83.6148 20.515 83.4066 20.6664 83.1796 20.7988C82.7822 21.0259 82.366 21.2151 81.9497 21.3665L81.5712 19.9473C82.0632 19.796 82.5741 19.5878 83.0471 19.304C83.1228 19.2662 83.1796 19.2283 83.2553 19.1905L83.8229 20.3636ZM80.4359 21.7827C79.5655 21.9341 78.6762 21.953 77.8058 21.8206L78.3546 20.1555C79.0547 20.2879 79.7926 20.2879 80.5306 20.1933L80.4359 21.7827ZM76.8598 21.6314L77.5788 19.9852C76.7651 19.7581 75.9894 19.3797 75.3082 18.8688L74.0026 20.269C74.8541 20.9123 75.838 21.3665 76.8598 21.6314ZM67.7206 20.742C67.3989 20.4961 67.0773 20.2312 66.7934 19.9284L67.5125 19.3986C67.7584 19.6635 68.0044 19.9095 68.2882 20.1366L67.7206 20.742ZM65.4122 18.1119C65.1851 17.6767 64.977 17.2037 64.8067 16.7307L65.942 16.4657C66.0555 16.8631 66.1879 17.2605 66.3582 17.6389L65.4122 18.1119ZM64.4093 14.8196C64.3715 14.5547 64.3715 14.3087 64.3715 14.0438C64.3715 13.5707 64.4093 13.1355 64.485 12.6814L65.9041 13.0599C65.7717 13.5707 65.7149 14.1195 65.7149 14.6682V14.8953L64.4093 14.8196ZM64.8823 11.1677C65.1851 10.3351 65.6203 9.55934 66.1501 8.87816L67.3232 10.1648C66.8691 10.7325 66.4907 11.3569 66.2069 12.057L64.8823 11.1677ZM66.7934 8.14022L67.853 9.59719C68.4585 9.01062 69.1776 8.51865 69.9533 8.17806L69.4046 6.36158C68.4207 6.77786 67.5314 7.38335 66.7934 8.14022ZM82.6876 12.5679C82.4038 13.0599 82.0821 13.514 81.7226 13.9113L80.4738 12.4354C80.663 12.1895 80.8333 11.9246 80.9847 11.6596C81.4009 10.9406 81.6659 10.2027 81.8172 9.44581L83.6337 10.127C83.4445 10.9785 83.1417 11.7921 82.6876 12.5679ZM72.1483 0.685086C72.5267 0.514791 72.9051 0.382339 73.3025 0.287731L73.3971 1.17705C73.0565 1.25274 72.7159 1.34734 72.3942 1.4798L72.1483 0.685086ZM75.5731 0.00390625C76.065 0.00390625 76.5759 0.0606712 77.0679 0.15528L76.7273 1.27166C76.3299 1.15813 75.9137 1.10136 75.4974 1.06352L75.5731 0.00390625ZM78.9222 0.760773C79.1682 0.874303 79.3953 0.987832 79.6223 1.12028C80.0197 1.34734 80.3981 1.61225 80.7387 1.89607L79.698 2.93676C79.3196 2.57725 78.8844 2.25558 78.3924 1.97176C78.3356 1.93392 78.26 1.89607 78.2032 1.85823L78.9222 0.760773ZM81.8551 2.99353C82.4227 3.67471 82.8768 4.4505 83.1985 5.24521L81.4956 5.62364C81.2307 4.94246 80.8711 4.29912 80.417 3.71255L81.8551 2.99353ZM83.5202 6.17237C83.7851 7.19414 83.8797 8.27267 83.7472 9.33228L81.8929 8.89709C81.9875 8.04561 81.9308 7.19414 81.7226 6.38051L83.5202 6.17237Z" fill="#B8D344"/>
<path fill-rule="evenodd" clip-rule="evenodd" d="M68.7613 11.395C69.0451 10.9219 69.3668 10.4678 69.7263 10.0515L70.9751 11.5274C70.7859 11.7734 70.6156 12.0383 70.4453 12.3221C70.048 13.0222 69.7641 13.7791 69.6317 14.536L67.8152 13.8359C68.0044 13.0033 68.3072 12.1708 68.7613 11.395ZM79.7169 6.24829C80.0008 6.74025 80.2089 7.23221 80.3981 7.76202L78.487 8.10261C78.3735 7.81878 78.2221 7.53496 78.0707 7.25113C77.6545 6.55103 77.1436 5.94554 76.557 5.43465L78.0707 4.22367C78.6952 4.79132 79.2628 5.4725 79.7169 6.24829ZM64.1444 9.42712C64.1823 9.02977 64.2579 8.63241 64.3715 8.23506L65.204 8.59457C65.0905 8.91624 65.0148 9.25683 64.958 9.61634L64.1444 9.42712ZM65.2797 6.11583C65.5257 5.69956 65.8284 5.28328 66.1501 4.90485L66.9448 5.75632C66.661 6.05907 66.3772 6.38074 66.1501 6.7024L65.2797 6.11583ZM67.6071 3.59925C67.8152 3.44788 68.0423 3.31543 68.2693 3.18298C68.6667 2.95592 69.064 2.74778 69.4803 2.59641L69.8777 4.01553C69.3668 4.1669 68.8748 4.37504 68.3829 4.65887C68.3261 4.69671 68.2504 4.73455 68.1936 4.7724L67.6071 3.59925ZM71.013 2.18013C71.8834 2.02876 72.7727 2.00983 73.6431 2.14229L73.0944 3.80739C72.3753 3.69386 71.6374 3.67494 70.9184 3.78847L71.013 2.18013ZM74.5892 2.3315L73.8701 3.97769C74.6838 4.20475 75.4406 4.58318 76.1407 5.09406L77.4463 3.69386C76.5759 3.06945 75.6109 2.59641 74.5892 2.3315ZM78.6952 18.3014C78.1275 18.3014 77.5788 18.2446 77.049 18.15L77.7112 16.3146C78.014 16.3525 78.3357 16.3903 78.6384 16.3903C79.4709 16.3903 80.2467 16.2389 80.9847 15.9929L81.2685 17.904C80.4549 18.1689 79.6034 18.3014 78.6952 18.3014ZM83.7283 3.23974C84.05 3.48572 84.3527 3.75063 84.6366 4.03445L83.9175 4.58318C83.6905 4.31828 83.4256 4.07229 83.1607 3.84523L83.7283 3.23974ZM86.0178 5.86985C86.2638 6.30505 86.472 6.75917 86.6423 7.23221L85.507 7.49711C85.3934 7.09976 85.2421 6.7024 85.0718 6.32397L86.0178 5.86985ZM87.0396 9.16222C87.0585 9.4082 87.0775 9.67311 87.0775 9.93801C87.0775 10.3921 87.0396 10.8462 86.9639 11.2814L85.5448 10.903C85.6583 10.3921 85.734 9.86232 85.734 9.29467C85.734 9.21899 85.734 9.1433 85.7151 9.06761L87.0396 9.16222ZM86.5666 12.8141C86.2638 13.6467 85.8286 14.4224 85.2988 15.1036L84.1068 13.798C84.5798 13.2304 84.9582 12.606 85.2231 11.9248L86.5666 12.8141ZM84.6366 15.8226L83.5769 14.3846C82.9715 14.9712 82.2714 15.4442 81.4766 15.7848L82.0443 17.6202C83.0282 17.185 83.8986 16.5795 84.6366 15.8226ZM79.3007 23.2967C78.9222 23.4481 78.5438 23.5805 78.1464 23.6941L78.0329 22.7858C78.3735 22.729 78.7141 22.6155 79.0547 22.502L79.3007 23.2967ZM75.8758 23.959C75.365 23.959 74.873 23.9022 74.381 23.8076L74.7216 22.6912C75.119 22.8047 75.5352 22.8804 75.9326 22.9183L75.8758 23.959ZM72.5078 23.2021C72.2807 23.0886 72.0537 22.975 71.8266 22.8426C71.4292 22.6155 71.0508 22.3506 70.7102 22.0668L71.732 21.0261C72.1293 21.3856 72.5645 21.7262 73.0376 21.9911C73.1133 22.0289 73.17 22.0668 73.2457 22.1046L72.5078 23.2021ZM69.5938 20.9693C69.0073 20.2882 68.5721 19.5313 68.2315 18.7177L69.9534 18.3392C70.1993 19.0204 70.5589 19.6637 71.0319 20.2503L69.5938 20.9693ZM67.9287 17.7905C67.6449 16.7687 67.5692 15.7091 67.6828 14.6306L69.5371 15.0658C69.4425 15.9173 69.5182 16.7687 69.7263 17.6013L67.9287 17.7905Z" fill="#34A853"/>
</g>
<defs>
<clipPath id="clip0">
<rect width="100.55" height="24" fill="white"/>
</clipPath>
</defs>
</svg>
